<svg width="144" height="144" fill="none" xmlns="http://www.w3.org/2000/svg"><g clip-path="url(#clip0_2174_43688)"><ellipse cx="72" cy="115.5" rx="45" ry="12.5" fill="url(#paint0_radial_2174_43688)"/><g opacity=".8" filter="url(#filter0_f_2174_43688)"><circle cx="72" cy="62" transform="rotate(90 72 62)" fill="url(#paint1_linear_2174_43688)" r="51"/></g><path d="M52.37 98.422c.914-1.919 3.176-2.807 5.212-2.195C60.941 97.235 66.29 98.5 72 98.5c5.71 0 11.059-1.264 14.418-2.273 2.036-.612 4.298.276 5.212 2.195l6.683 14.035c.937 1.968.089 4.247-2.008 4.84C92.175 118.465 84.39 120 72 120s-20.175-1.535-24.305-2.703c-2.097-.593-2.945-2.872-2.008-4.84l6.683-14.035z" fill="url(#paint2_angular_2174_43688)"/><circle opacity=".7" cx="72" cy="62" r="62" fill="url(#paint3_radial_2174_43688)"/><circle cx="72" cy="62" r="38" fill="url(#paint4_radial_2174_43688)"/><circle cx="72" cy="62" r="38" fill="url(#paint5_radial_2174_43688)"/><circle cx="72" cy="62" r="38" fill="url(#paint6_radial_2174_43688)"/><circle cx="72" cy="62" r="38" fill="url(#paint7_radial_2174_43688)" fill-opacity=".4"/><path fill-rule="evenodd" clip-rule="evenodd" d="M95 78c0 3.215 3.76 5.22 5.515 2.525A33.845 33.845 0 00106 62c0-18.778-15.222-34-34-34a33.841 33.841 0 00-18.83 5.686C51.122 35.05 52.54 38 55 38c22.091 0 40 17.909 40 40z" fill="url(#paint8_radial_2174_43688)"/><path opacity=".5" fill-rule="evenodd" clip-rule="evenodd" d="M81.376 94.69C82.393 94.4 82.057 93 81 93c-19.402 0-35.731-13.156-40.554-31.034C40.046 60.484 38 60.465 38 62c0 18.778 15.222 34 34 34 3.252 0 6.398-.457 9.376-1.31z" fill="url(#paint9_radial_2174_43688)"/><circle opacity=".5" cx="38.75" cy="54.75" r="1.75" fill="url(#paint10_radial_2174_43688)"/><circle opacity=".91" cx="62.575" cy="78.575" r="1.575" fill="url(#paint11_radial_2174_43688)"/><circle opacity=".3" cx="102.8" cy="31.8" r="1.8" fill="url(#paint12_radial_2174_43688)"/><circle cx="50.35" cy="66.35" r="2.35" fill="url(#paint13_radial_2174_43688)"/><circle cx="82.325" cy="67.325" r="2.325" fill="url(#paint14_radial_2174_43688)"/><circle opacity=".8" cx="107.2" cy="77.2" r="2.2" fill="url(#paint15_radial_2174_43688)"/><circle cx="68.85" cy="50.85" r="1.85" fill="url(#paint16_radial_2174_43688)"/><circle opacity=".8" cx="109.5" cy="89.5" r="1.5" fill="url(#paint17_radial_2174_43688)"/><circle opacity=".6" cx="28" cy="42" r="1" fill="url(#paint18_radial_2174_43688)"/><circle opacity=".5" cx="95.85" cy="61.85" r="1.85" fill="url(#paint19_radial_2174_43688)"/><circle opacity=".5" cx="58.302" cy="37.302" r="3.302" fill="url(#paint20_radial_2174_43688)"/><circle opacity=".3" cx="51.618" cy="29.618" r="2.618" fill="url(#paint21_radial_2174_43688)"/><circle opacity=".5" cx="104.886" cy="41.886" r="2.886" fill="url(#paint22_radial_2174_43688)"/><circle opacity=".3" cx="32.785" cy="80.785" r="1.785" fill="url(#paint23_radial_2174_43688)"/><circle opacity=".5" cx="85.064" cy="86.064" r="3.064" fill="url(#paint24_radial_2174_43688)"/><circle opacity=".5" cx="66.172" cy="85.172" r="2.172" fill="url(#paint25_radial_2174_43688)"/><circle opacity=".3" cx="47.529" cy="91.529" r="2.529" fill="url(#paint26_radial_2174_43688)"/><circle opacity=".3" cx="101.439" cy="98.439" r="2.439" fill="url(#paint27_radial_2174_43688)"/><path d="M49.612 51.552c.1-.404.675-.404.776 0l.554 2.215a.4.4 0 00.29.291l2.216.554c.404.1.404.675 0 .776l-2.215.554a.4.4 0 00-.291.29l-.554 2.216c-.1.404-.675.404-.776 0l-.554-2.215a.4.4 0 00-.29-.291l-2.216-.554c-.404-.1-.404-.675 0-.776l2.215-.554a.4.4 0 00.291-.29l.554-2.216z" fill="url(#paint28_radial_2174_43688)"/><path d="M83.612 45.552c.1-.404.675-.404.776 0l1.154 4.615a.4.4 0 00.29.291l4.616 1.154c.404.1.404.675 0 .776l-4.615 1.154a.4.4 0 00-.291.29l-1.154 4.616c-.1.404-.675.404-.776 0l-1.154-4.615a.4.4 0 00-.29-.291l-4.616-1.154c-.404-.1-.404-.675 0-.776l4.615-1.154a.4.4 0 00.291-.29l1.154-4.616z" fill="url(#paint29_radial_2174_43688)"/><path d="M77.612 90.552c.1-.404.675-.404.776 0l.154.615a.4.4 0 00.29.291l.616.154c.404.1.404.675 0 .776l-.615.154a.4.4 0 00-.291.29l-.154.616c-.1.404-.675.404-.776 0l-.154-.615a.4.4 0 00-.29-.291l-.616-.154c-.404-.1-.404-.675 0-.776l.615-.154a.4.4 0 00.291-.29l.154-.616z" fill="url(#paint30_radial_2174_43688)"/><path d="M116.612 52.552c.101-.404.675-.404.776 0l.154.615a.4.4 0 00.291.291l.615.154c.404.1.404.675 0 .776l-.615.154a.4.4 0 00-.291.29l-.154.616c-.101.404-.675.404-.776 0l-.154-.615a.4.4 0 00-.291-.291l-.615-.154c-.404-.1-.404-.675 0-.776l.615-.154a.4.4 0 00.291-.29l.154-.616z" fill="url(#paint31_radial_2174_43688)"/><path opacity=".7" d="M77.515 37.94c.126-.505.844-.505.97 0l.57 2.278a1 1 0 00.727.727l2.278.57c.505.126.505.844 0 .97l-2.278.57a1 1 0 00-.727.727l-.57 2.278c-.126.505-.844.505-.97 0l-.57-2.278a1 1 0 00-.727-.727l-2.278-.57c-.505-.126-.505-.844 0-.97l2.278-.57a1 1 0 00.727-.727l.57-2.278z" fill="url(#paint32_radial_2174_43688)"/><path opacity=".3" d="M75.515 69.94c.126-.505.844-.505.97 0l.57 2.278a1 1 0 00.727.727l2.278.57c.505.126.505.844 0 .97l-2.278.57a1 1 0 00-.727.727l-.57 2.278c-.126.505-.844.505-.97 0l-.57-2.278a1 1 0 00-.727-.727l-2.278-.57c-.505-.126-.505-.844 0-.97l2.278-.57a1 1 0 00.727-.727l.57-2.278z" fill="url(#paint33_radial_2174_43688)"/></g><defs><radialGradient id="paint0_radial_2174_43688" cx="0" cy="0" r="1" gradientUnits="userSpaceOnUse" gradientTransform="matrix(0 -12.5668 45.2406 0 72 115.567)"><stop offset=".458" stop-color="#7D2889"/><stop offset=".817" stop-color="#A60A5E" stop-opacity=".38"/><stop offset="1" stop-color="#7D2889" stop-opacity="0"/></radialGradient><radialGradient id="paint2_angular_2174_43688" cx="0" cy="0" r="1" gradientUnits="userSpaceOnUse" gradientTransform="matrix(0 -66.5 134.008 0 72 71.5)"><stop offset=".433" stop-color="#820006"/><stop offset=".476" stop-color="#FF66D9"/><stop offset=".521" stop-color="#730882"/><stop offset=".557" stop-color="#230018"/></radialGradient><radialGradient id="paint3_radial_2174_43688" cx="0" cy="0" r="1" gradientUnits="userSpaceOnUse" gradientTransform="matrix(0 -62.3315 62.3315 0 72 62.331)"><stop offset=".507" stop-color="#F79292"/><stop offset=".591" stop-color="#FF66D9" stop-opacity=".92"/><stop offset=".768" stop-color="#E50A80" stop-opacity=".07"/><stop offset="1" stop-color="#42154C" stop-opacity="0"/></radialGradient><radialGradient id="paint4_radial_2174_43688" cx="0" cy="0" r="1" gradientUnits="userSpaceOnUse" gradientTransform="rotate(90 16.611 65.944) scale(46.6667)"><stop offset=".453" stop-color="#FF4E98"/><stop offset=".776" stop-color="#D51C53"/></radialGradient><radialGradient id="paint5_radial_2174_43688" cx="0" cy="0" r="1" gradientUnits="userSpaceOnUse" gradientTransform="rotate(-18.138 208.513 -88.783) scale(61.0328)"><stop stop-color="#BB1B42"/><stop offset="1" stop-color="#DF00FF" stop-opacity="0"/></radialGradient><radialGradient id="paint6_radial_2174_43688" cx="0" cy="0" r="1" gradientUnits="userSpaceOnUse" gradientTransform="rotate(-116.906 73.776 21.487) scale(75.1332)"><stop stop-color="#C1161E"/><stop offset="1" stop-color="#DF00FF" stop-opacity="0"/></radialGradient><radialGradient id="paint7_radial_2174_43688" cx="0" cy="0" r="1" gradientUnits="userSpaceOnUse" gradientTransform="matrix(0 42.5 -42.5 0 84 52.5)"><stop stop-color="#fff"/><stop offset="1" stop-color="#fff" stop-opacity="0"/></radialGradient><radialGradient id="paint8_radial_2174_43688" cx="0" cy="0" r="1" gradientUnits="userSpaceOnUse" gradientTransform="matrix(26.99999 -31 39.70316 34.58015 65.5 67)"><stop offset=".491" stop-color="#FF66D9" stop-opacity="0"/><stop offset="1" stop-color="#FFC2D9" stop-opacity=".84"/></radialGradient><radialGradient id="paint9_radial_2174_43688" cx="0" cy="0" r="1" gradientUnits="userSpaceOnUse" gradientTransform="matrix(16.99996 -32.49996 42.2451 22.0974 82 66)"><stop offset=".657" stop-color="#FF66D9" stop-opacity="0"/><stop offset="1" stop-color="#FFC2D9" stop-opacity=".84"/></radialGradient><radialGradient id="paint10_radial_2174_43688" cx="0" cy="0" r="1" gradientUnits="userSpaceOnUse" gradientTransform="rotate(135 8.715 34.998) scale(4.12479 4.01059)"><stop stop-color="#FFC2D9" stop-opacity=".58"/><stop offset="1" stop-color="#B272C1" stop-opacity="0"/></radialGradient><radialGradient id="paint11_radial_2174_43688" cx="0" cy="0" r="1" gradientUnits="userSpaceOnUse" gradientTransform="rotate(135 15.625 51.885) scale(3.71231 3.60953)"><stop stop-color="#FFC2D9" stop-opacity=".58"/><stop offset="1" stop-color="#B272C1" stop-opacity="0"/></radialGradient><radialGradient id="paint12_radial_2174_43688" cx="0" cy="0" r="1" gradientUnits="userSpaceOnUse" gradientTransform="matrix(-3 3 -2.91694 -2.91694 103.7 30.6)"><stop stop-color="#FFC2D9" stop-opacity=".58"/><stop offset="1" stop-color="#B272C1" stop-opacity="0"/></radialGradient><radialGradient id="paint13_radial_2174_43688" cx="0" cy="0" r="1" gradientUnits="userSpaceOnUse" gradientTransform="matrix(-3.91666 3.91666 -3.80823 -3.80823 51.524 64.784)"><stop offset=".26" stop-color="#FFC2D9" stop-opacity=".76"/><stop offset="1" stop-color="#B272C1" stop-opacity="0"/></radialGradient><radialGradient id="paint14_radial_2174_43688" cx="0" cy="0" r="1" gradientUnits="userSpaceOnUse" gradientTransform="matrix(-3.875 3.875 -3.7677 -3.7677 83.487 65.775)"><stop offset=".26" stop-color="#FFC2D9" stop-opacity=".76"/><stop offset="1" stop-color="#B272C1" stop-opacity="0"/></radialGradient><radialGradient id="paint15_radial_2174_43688" cx="0" cy="0" r="1" gradientUnits="userSpaceOnUse" gradientTransform="rotate(135 38.465 60.296) scale(5.18545 5.04188)"><stop stop-color="#FFC2D9" stop-opacity=".58"/><stop offset="1" stop-color="#B272C1" stop-opacity="0"/></radialGradient><radialGradient id="paint16_radial_2174_43688" cx="0" cy="0" r="1" gradientUnits="userSpaceOnUse" gradientTransform="rotate(135 24.612 39.26) scale(4.36049 4.23976)"><stop offset=".26" stop-color="#FFC2D9" stop-opacity=".76"/><stop offset="1" stop-color="#B272C1" stop-opacity="0"/></radialGradient><radialGradient id="paint17_radial_2174_43688" cx="0" cy="0" r="1" gradientUnits="userSpaceOnUse" gradientTransform="matrix(-2.5 2.5 -2.43079 -2.43079 110.25 88.5)"><stop offset=".26" stop-color="#FFC2D9" stop-opacity=".76"/><stop offset="1" stop-color="#B272C1" stop-opacity="0"/></radialGradient><radialGradient id="paint18_radial_2174_43688" cx="0" cy="0" r="1" gradientUnits="userSpaceOnUse" gradientTransform="rotate(135 5.69 26.57) scale(2.35702 2.29176)"><stop offset=".26" stop-color="#FFC2D9" stop-opacity=".76"/><stop offset="1" stop-color="#B272C1" stop-opacity="0"/></radialGradient><radialGradient id="paint19_radial_2174_43688" cx="0" cy="0" r="1" gradientUnits="userSpaceOnUse" gradientTransform="rotate(135 35.833 50.351) scale(4.36049 4.23976)"><stop stop-color="#FFC2D9" stop-opacity=".58"/><stop offset="1" stop-color="#B272C1" stop-opacity="0"/></radialGradient><radialGradient id="paint20_radial_2174_43688" cx="0" cy="0" r="1" gradientUnits="userSpaceOnUse" gradientTransform="rotate(135 22.707 29.967) scale(7.78348 7.56798)"><stop stop-color="#FFC2D9" stop-opacity=".58"/><stop offset="1" stop-color="#B272C1" stop-opacity="0"/></radialGradient><radialGradient id="paint21_radial_2174_43688" cx="0" cy="0" r="1" gradientUnits="userSpaceOnUse" gradientTransform="matrix(-4.36334 4.36334 -4.24253 -4.24253 52.926 27.874)"><stop stop-color="#FFC2D9" stop-opacity=".58"/><stop offset="1" stop-color="#B272C1" stop-opacity="0"/></radialGradient><radialGradient id="paint22_radial_2174_43688" cx="0" cy="0" r="1" gradientUnits="userSpaceOnUse" gradientTransform="rotate(135 44.888 42.002) scale(6.80178 6.61346)"><stop stop-color="#FFC2D9" stop-opacity=".58"/><stop offset="1" stop-color="#B272C1" stop-opacity="0"/></radialGradient><radialGradient id="paint23_radial_2174_43688" cx="0" cy="0" r="1" gradientUnits="userSpaceOnUse" gradientTransform="matrix(-2.975 2.975 -2.89263 -2.89263 33.677 79.594)"><stop stop-color="#FFC2D9" stop-opacity=".58"/><stop offset="1" stop-color="#B272C1" stop-opacity="0"/></radialGradient><radialGradient id="paint24_radial_2174_43688" cx="0" cy="0" r="1" gradientUnits="userSpaceOnUse" gradientTransform="rotate(135 25.897 59.945) scale(7.22251 7.02254)"><stop stop-color="#FFC2D9" stop-opacity=".58"/><stop offset="1" stop-color="#B272C1" stop-opacity="0"/></radialGradient><radialGradient id="paint25_radial_2174_43688" cx="0" cy="0" r="1" gradientUnits="userSpaceOnUse" gradientTransform="rotate(135 16.289 55.791) scale(5.11886 4.97714)"><stop stop-color="#FFC2D9" stop-opacity=".58"/><stop offset="1" stop-color="#B272C1" stop-opacity="0"/></radialGradient><radialGradient id="paint26_radial_2174_43688" cx="0" cy="0" r="1" gradientUnits="userSpaceOnUse" gradientTransform="rotate(135 5.79 55.027) scale(5.96032 5.7953)"><stop stop-color="#FFC2D9" stop-opacity=".58"/><stop offset="1" stop-color="#B272C1" stop-opacity="0"/></radialGradient><radialGradient id="paint27_radial_2174_43688" cx="0" cy="0" r="1" gradientUnits="userSpaceOnUse" gradientTransform="rotate(135 31.279 69.668) scale(5.74997 5.59075)"><stop stop-color="#FFC2D9" stop-opacity=".58"/><stop offset="1" stop-color="#B272C1" stop-opacity="0"/></radialGradient><radialGradient id="paint28_radial_2174_43688" cx="0" cy="0" r="1" gradientUnits="userSpaceOnUse" gradientTransform="matrix(0 6.5 -6.32004 0 50 55)"><stop stop-color="#FFC2D9"/><stop offset="1" stop-color="#FF66D9" stop-opacity="0"/></radialGradient><radialGradient id="paint29_radial_2174_43688" cx="0" cy="0" r="1" gradientUnits="userSpaceOnUse" gradientTransform="matrix(0 10.4 -10.1121 0 84 52)"><stop stop-color="#FFE3EE"/><stop offset="1" stop-color="#FF66D9" stop-opacity="0"/></radialGradient><radialGradient id="paint30_radial_2174_43688" cx="0" cy="0" r="1" gradientUnits="userSpaceOnUse" gradientTransform="matrix(0 3.9 -3.79202 0 78 92)"><stop stop-color="#FFC2D9"/><stop offset="1" stop-color="#FF66D9" stop-opacity="0"/></radialGradient><radialGradient id="paint31_radial_2174_43688" cx="0" cy="0" r="1" gradientUnits="userSpaceOnUse" gradientTransform="matrix(0 3.9 -3.79202 0 117 54)"><stop stop-color="#FFC2D9" stop-opacity=".76"/><stop offset="1" stop-color="#B272C1" stop-opacity="0"/></radialGradient><radialGradient id="paint32_radial_2174_43688" cx="0" cy="0" r="1" gradientUnits="userSpaceOnUse" gradientTransform="rotate(90 18 60) scale(6.28572)"><stop stop-color="#fff"/><stop offset=".515" stop-color="#FFF3DC" stop-opacity=".8"/><stop offset="1" stop-color="#FF66D9" stop-opacity=".22"/></radialGradient><radialGradient id="paint33_radial_2174_43688" cx="0" cy="0" r="1" gradientUnits="userSpaceOnUse" gradientTransform="rotate(90 1 75) scale(6.28572)"><stop stop-color="#fff"/><stop offset=".515" stop-color="#FFF3DC" stop-opacity=".8"/><stop offset="1" stop-color="#FF66D9" stop-opacity=".22"/></radialGradient><linearGradient id="paint1_linear_2174_43688" x1="32.705" y1="32.791" x2="114.639" y2="86.717" gradientUnits="userSpaceOnUse"><stop stop-color="#E50914"/><stop offset="1" stop-color="#812BEF" stop-opacity=".75"/></linearGradient><clipPath id="clip0_2174_43688"><path fill="#fff" d="M0 0h144v144H0z"/></clipPath><filter id="filter0_f_2174_43688" x="5" y="-5" width="134" height="134" filterUnits="userSpaceOnUse" color-interpolation-filters="sRGB"><feFlood flood-opacity="0" result="BackgroundImageFix"/><feBlend in="SourceGraphic" in2="BackgroundImageFix" result="shape"/><feGaussianBlur stdDeviation="8" result="effect1_foregroundBlur_2174_43688"/></filter></defs></svg>