<svg width="128" height="128" fill="none" xmlns="http://www.w3.org/2000/svg"><ellipse cx="64.5" cy="64" rx="62.5" ry="64" fill="url(#paint0_radial_2706_4062)"/><ellipse cx="64" cy="116" rx="64" ry="7" fill="url(#paint1_radial_2706_4062)"/><circle cx="41" cy="41" r="41" transform="matrix(.99923 .03926 .04955 .99877 19 23)" fill="#59216E"/><circle cx="41" cy="41" r="41" transform="matrix(.99923 .03926 .04955 .99877 19 23)" fill="url(#paint2_radial_2706_4062)"/><circle cx="41" cy="41" r="41" transform="matrix(.99923 .03926 .04955 .99877 19 23)" fill="url(#paint3_radial_2706_4062)" fill-opacity=".8"/><circle cx="41" cy="41" r="41" transform="matrix(.99923 .03926 .04955 .99877 19 23)" fill="url(#paint4_radial_2706_4062)"/><circle cx="41" cy="41" r="41" transform="matrix(.99923 .03926 .04955 .99877 21 21)" fill="#fff" fill-opacity=".7"/><circle cx="41" cy="41" r="41" transform="matrix(.99923 .03926 .04955 .99877 21 21)" fill="url(#paint5_radial_2706_4062)"/><circle cx="41" cy="41" r="41" transform="matrix(.99923 .03926 .04955 .99877 21 21)" fill="url(#paint6_radial_2706_4062)" fill-opacity=".8"/><circle cx="41" cy="41" r="41" transform="matrix(.99923 .03926 .04955 .99877 21 21)" fill="url(#paint7_radial_2706_4062)"/><g filter="url(#filter0_f_2706_4062)" fill-rule="evenodd" clip-rule="evenodd"><path d="M70.755 71.2l9.058-8.133 7.1 7.65-16.638 14.939-2.96 2.656-3.442-2.656L44.51 70.718l5.704-7.65 10.54 8.132L58.002 41h10l2.753 30.2z" fill="url(#paint8_radial_2706_4062)"/><path d="M70.755 71.2l9.058-8.133 7.1 7.65-16.638 14.939-2.96 2.656-3.442-2.656L44.51 70.718l5.704-7.65 10.54 8.132L58.002 41h10l2.753 30.2z" fill="url(#paint9_radial_2706_4062)"/><path d="M70.755 71.2l9.058-8.133 7.1 7.65-16.638 14.939-2.96 2.656-3.442-2.656L44.51 70.718l5.704-7.65 10.54 8.132L58.002 41h10l2.753 30.2z" fill="url(#paint10_radial_2706_4062)"/></g><path fill-rule="evenodd" clip-rule="evenodd" d="M69.14 75.452l12.09-10.855 4.26 4.59-16.638 14.939-1.776 1.594-2.066-1.594-19.362-14.938 3.423-4.59 14.07 10.854L59.998 41h6l3.141 34.452z" fill="url(#paint11_radial_2706_4062)"/><path fill-rule="evenodd" clip-rule="evenodd" d="M69.14 75.452l12.09-10.855 4.26 4.59-16.638 14.939-1.776 1.594-2.066-1.594-19.362-14.938 3.423-4.59 14.07 10.854L59.998 41h6l3.141 34.452z" fill="url(#paint12_radial_2706_4062)"/><path fill-rule="evenodd" clip-rule="evenodd" d="M69.14 75.452l12.09-10.855 4.26 4.59-16.638 14.939-1.776 1.594-2.066-1.594-19.362-14.938 3.423-4.59 14.07 10.854L59.998 41h6l3.141 34.452z" fill="url(#paint13_radial_2706_4062)"/><defs><radialGradient id="paint0_radial_2706_4062" cx="0" cy="0" r="1" gradientUnits="userSpaceOnUse" gradientTransform="matrix(0 -64.3422 62.8342 0 64.5 64.342)"><stop stop-color="#FFBB8D"/><stop offset=".618" stop-color="#FF7A3A"/><stop offset=".757" stop-color="#C41573" stop-opacity=".34"/><stop offset=".886" stop-color="#7D2889" stop-opacity=".19"/><stop offset="1" stop-color="#42154C" stop-opacity="0"/></radialGradient><radialGradient id="paint1_radial_2706_4062" cx="0" cy="0" r="1" gradientUnits="userSpaceOnUse" gradientTransform="matrix(0 -7.03743 64.3422 0 64 116.037)"><stop stop-color="#D3317A"/><stop offset=".5" stop-color="#7D2889" stop-opacity=".19"/><stop offset="1" stop-color="#42154C" stop-opacity="0"/></radialGradient><radialGradient id="paint2_radial_2706_4062" cx="0" cy="0" r="1" gradientUnits="userSpaceOnUse" gradientTransform="matrix(68.50005 -47.5 47.5 68.50005 8.5 70)"><stop stop-color="#D317FF"/><stop offset=".514" stop-color="#BD34DD" stop-opacity=".5"/><stop offset="1" stop-color="#E469FF" stop-opacity=".07"/></radialGradient><radialGradient id="paint3_radial_2706_4062" cx="0" cy="0" r="1" gradientUnits="userSpaceOnUse" gradientTransform="matrix(58.5506 46.63618 -47.19006 59.24597 4.45 31.364)"><stop stop-color="#FF8145"/><stop offset=".459" stop-color="#FF9360" stop-opacity=".56"/><stop offset="1" stop-color="#FF53EE" stop-opacity=".07"/></radialGradient><radialGradient id="paint4_radial_2706_4062" cx="0" cy="0" r="1" gradientUnits="userSpaceOnUse" gradientTransform="rotate(-159.26 45.148 22.226) scale(65.6373)"><stop stop-color="#F276AE"/><stop offset=".333" stop-color="#F276AE" stop-opacity=".76"/><stop offset=".667" stop-color="#F44484" stop-opacity=".07"/><stop offset="1" stop-color="#660914" stop-opacity="0"/></radialGradient><radialGradient id="paint5_radial_2706_4062" cx="0" cy="0" r="1" gradientUnits="userSpaceOnUse" gradientTransform="matrix(68.50005 -47.5 47.5 68.50005 8.5 70)"><stop stop-color="#DF89FF"/><stop offset="1" stop-color="#E469FF" stop-opacity=".07"/></radialGradient><radialGradient id="paint6_radial_2706_4062" cx="0" cy="0" r="1" gradientUnits="userSpaceOnUse" gradientTransform="rotate(61.903 9.057 20.51) scale(85.1778)"><stop stop-color="#FF8145"/><stop offset=".459" stop-color="#FF7E41" stop-opacity=".56"/><stop offset="1" stop-color="#FF53EE" stop-opacity=".07"/></radialGradient><radialGradient id="paint7_radial_2706_4062" cx="0" cy="0" r="1" gradientUnits="userSpaceOnUse" gradientTransform="matrix(-53.86848 -53.95128 55.47775 -55.3926 69.166 68.368)"><stop stop-color="#F276AE"/><stop offset=".333" stop-color="#F276AE" stop-opacity=".76"/><stop offset=".667" stop-color="#F44484" stop-opacity=".07"/><stop offset="1" stop-color="#FF6779" stop-opacity="0"/></radialGradient><radialGradient id="paint8_radial_2706_4062" cx="0" cy="0" r="1" gradientUnits="userSpaceOnUse" gradientTransform="matrix(-31.45095 -12.37808 12.60404 -32.02509 84.5 74.009)"><stop stop-color="#FBA0F2"/><stop offset=".698" stop-color="#FBB" stop-opacity=".74"/><stop offset="1" stop-color="#E165FD" stop-opacity=".07"/></radialGradient><radialGradient id="paint9_radial_2706_4062" cx="0" cy="0" r="1" gradientUnits="userSpaceOnUse" gradientTransform="matrix(29.67798 12.53708 -13.1057 31.024 44.929 71.924)"><stop stop-color="#F2BCFF"/><stop offset="1" stop-color="#E5C7FF" stop-opacity="0"/></radialGradient><radialGradient id="paint10_radial_2706_4062" cx="0" cy="0" r="1" gradientUnits="userSpaceOnUse" gradientTransform="matrix(32.91071 29.29662 -24.5639 27.59415 57.943 51.85)"><stop stop-color="#FFA379"/><stop offset=".333" stop-color="#FFBCC7" stop-opacity=".85"/><stop offset="1" stop-color="#FFD1D1" stop-opacity="0"/></radialGradient><radialGradient id="paint11_radial_2706_4062" cx="0" cy="0" r="1" gradientUnits="userSpaceOnUse" gradientTransform="matrix(-29.55787 -11.6998 11.96071 -30.21701 83.216 72.2)"><stop stop-color="#A60A5E"/><stop offset=".698" stop-color="#FF66D9"/><stop offset="1" stop-color="#7D2889"/></radialGradient><radialGradient id="paint12_radial_2706_4062" cx="0" cy="0" r="1" gradientUnits="userSpaceOnUse" gradientTransform="matrix(27.89198 11.85007 -12.434 29.26638 46.033 70.23)"><stop stop-color="#9A00BE"/><stop offset="1" stop-color="#7D2889" stop-opacity=".38"/></radialGradient><radialGradient id="paint13_radial_2706_4062" cx="0" cy="0" r="1" gradientUnits="userSpaceOnUse" gradientTransform="matrix(39 34.50004 -29.06886 32.86041 53.999 53.5)"><stop stop-color="#FF661D"/><stop offset=".5" stop-color="#AD005D" stop-opacity=".62"/><stop offset="1" stop-color="#67004D" stop-opacity="0"/></radialGradient><filter id="filter0_f_2706_4062" x="36.512" y="33" width="58.402" height="63.312" filterUnits="userSpaceOnUse" color-interpolation-filters="sRGB"><feFlood flood-opacity="0" result="BackgroundImageFix"/><feBlend in="SourceGraphic" in2="BackgroundImageFix" result="shape"/><feGaussianBlur stdDeviation="4" result="effect1_foregroundBlur_2706_4062"/></filter></defs></svg>