<svg width="144" height="145" fill="none" xmlns="http://www.w3.org/2000/svg"><ellipse cx="72" cy="112.909" rx="61" ry="11" fill="url(#paint0_radial_2308_4743)"/><ellipse cx="72" cy="52.409" rx="61" ry="48.5" fill="url(#paint1_radial_2308_4743)"/><path fill-rule="evenodd" clip-rule="evenodd" d="M106.79 99.014A3.004 3.004 0 00104 94.91a3 3 0 00-.79 5.895 2.972 2.972 0 00-.171.618 4 4 0 103.986 6.937 4 4 0 006.262 2.832 3 3 0 104.653-3.57 4 4 0 00-5.652-5.652 2.994 2.994 0 00-3.393-.85 3.005 3.005 0 00-2.105-2.105zM42 100.91c0 .404-.06.794-.171 1.162a5.502 5.502 0 11-4.138 10.068c-.6.482-1.362.77-2.191.77a3.483 3.483 0 01-1.728-.455 2.5 2.5 0 01-4.752-.723 3 3 0 11-.017-5.65 4 4 0 015.172-3.996A4.005 4.005 0 0138 96.909a4 4 0 014 4z" fill="url(#paint2_radial_2308_4743)"/><path fill-rule="evenodd" clip-rule="evenodd" d="M77 28.91c0 .492-.09.964-.252 1.4.297.145.574.325.825.536a3.998 3.998 0 013.943-1.904 4 4 0 017.482 2.093 4.008 4.008 0 012.483 1.903 3.993 3.993 0 012.558 1.37 5 5 0 016.186 7.276 4.012 4.012 0 011.54 1.972 4 4 0 016.685 4.378 4.001 4.001 0 11-3.915 5.975H42v-1.535a4 4 0 01-5.523-5.36 4 4 0 014.419-6.627A3.992 3.992 0 0144 38.908a4 4 0 014.516-3.967 3.999 3.999 0 014.042-1.994 4 4 0 016.104-5.024 4.002 4.002 0 014.114 2.661 3.977 3.977 0 011.743-.647 3.999 3.999 0 014.571-1.878 4.001 4.001 0 017.91.85z" fill="url(#paint3_radial_2308_4743)"/><circle opacity=".6" cx="69.5" cy="40.409" r="9.5" fill="url(#paint4_radial_2308_4743)"/><circle opacity=".6" cx="66.5" cy="37.409" r="6.5" fill="url(#paint5_radial_2308_4743)"/><circle opacity=".6" cx="64.5" cy="42.409" r="6.5" fill="url(#paint6_radial_2308_4743)"/><circle opacity=".6" cx="45.5" cy="45.409" r="6.5" fill="url(#paint7_radial_2308_4743)"/><circle opacity=".6" cx="49.5" cy="42.409" r="6.5" fill="url(#paint8_radial_2308_4743)"/><circle opacity=".6" cx="49.5" cy="47.409" r="3.5" fill="url(#paint9_radial_2308_4743)"/><circle opacity=".2" cx="104.5" cy="45.409" r="3.5" fill="url(#paint10_radial_2308_4743)"/><circle opacity=".2" cx="108.5" cy="50.409" r="2.5" fill="url(#paint11_radial_2308_4743)"/><circle opacity=".3" cx="103.5" cy="49.409" r="4.5" fill="url(#paint12_radial_2308_4743)"/><circle opacity=".2" cx="85.5" cy="30.409" r="3.5" fill="url(#paint13_radial_2308_4743)"/><circle opacity=".2" cx="72.5" cy="27.409" r="2.5" fill="url(#paint14_radial_2308_4743)"/><circle opacity=".2" cx="55.5" cy="30.409" r="2.5" fill="url(#paint15_radial_2308_4743)"/><circle opacity=".2" cx="89.5" cy="38.409" r="6.5" fill="url(#paint16_radial_2308_4743)"/><circle opacity=".6" cx="83.5" cy="36.409" r="6.5" fill="url(#paint17_radial_2308_4743)"/><circle opacity=".2" cx="86.5" cy="39.409" r="6.5" fill="url(#paint18_radial_2308_4743)"/><path d="M35 49.91h57l-5 65.999H39l-4-66z" fill="url(#paint19_linear_2308_4743)"/><path d="M102 111.909l-15 4 5-66 19 5-9 57z" fill="url(#paint20_linear_2308_4743)"/><path fill-rule="evenodd" clip-rule="evenodd" d="M69.877 63.061L70.2 49.91H58.27l.132 12.505a20.864 20.864 0 00-5.927 2.319l-.417-14.824H40.106l3.718 66h10.094l-.402-14.258a20.884 20.884 0 005.322 1.846l.13 12.412h9.607l.316-12.837a20.927 20.927 0 004.671-2.008l-.47 14.845h10.576l3.483-66H75.183l-.492 15.553a20.922 20.922 0 00-4.814-2.4zm20.433 51.966l3.75-1 7.427-61.621-5.72-1.506-5.457 64.127zm5.883-1.569l2.945-.785 9.963-58.264-5.562-1.463-7.346 60.512zM79 82.909c0 8.837-7.163 16-16 16s-16-7.163-16-16c0-8.836 7.163-16 16-16s16 7.164 16 16zm-9.115 8.635l-2.155-6.97 5.22-3.872a.495.495 0 00-.253-.892 118.74 118.74 0 00-6.589-.349l-2.638-7.259a.5.5 0 00-.94 0l-2.638 7.26c-2.237.056-4.436.174-6.59.348a.495.495 0 00-.252.892l5.22 3.872-2.155 6.97a.5.5 0 00.759.561L63 87.935l6.126 4.17a.5.5 0 00.76-.56z" fill="url(#paint21_linear_2308_4743)"/><circle opacity=".4" cx="32.5" cy="105.409" r="2.5" fill="url(#paint22_radial_2308_4743)"/><circle opacity=".4" cx="28.5" cy="108.409" r="2.5" fill="url(#paint23_radial_2308_4743)"/><circle opacity=".4" cx="31.5" cy="108.409" r="2.5" fill="url(#paint24_radial_2308_4743)"/><circle opacity=".4" cx="35.5" cy="110.409" r="2.5" fill="url(#paint25_radial_2308_4743)"/><circle opacity=".4" cx="115.5" cy="109.409" r="2.5" fill="url(#paint26_radial_2308_4743)"/><circle opacity=".4" cx="115" cy="104.909" r="3" fill="url(#paint27_radial_2308_4743)"/><circle opacity=".4" cx="110" cy="104.909" r="3" fill="url(#paint28_radial_2308_4743)"/><circle opacity=".4" cx="106.5" cy="103.409" r="3.5" fill="url(#paint29_radial_2308_4743)"/><circle opacity=".4" cx="34.5" cy="107.409" r="3.5" fill="url(#paint30_radial_2308_4743)"/><path fill-rule="evenodd" clip-rule="evenodd" d="M105 103.909a3 3 0 013 3 4 4 0 11-1.12 7.841 3 3 0 01-5.862-1.169 3.501 3.501 0 01.982-6.636v-.036a3 3 0 013-3z" fill="url(#paint31_radial_2308_4743)"/><defs><radialGradient id="paint0_radial_2308_4743" cx="0" cy="0" r="1" gradientUnits="userSpaceOnUse" gradientTransform="matrix(0 -11.0588 61.3262 0 72 112.968)"><stop offset=".49" stop-color="#7D2889"/><stop offset=".828" stop-color="#A60A5E" stop-opacity=".38"/><stop offset="1" stop-color="#7D2889" stop-opacity="0"/></radialGradient><radialGradient id="paint1_radial_2308_4743" cx="0" cy="0" r="1" gradientUnits="userSpaceOnUse" gradientTransform="matrix(0 -48.7594 61.3262 0 72 52.669)"><stop offset=".253" stop-color="#FFBB8D"/><stop offset=".455" stop-color="#FF661D" stop-opacity=".91"/><stop offset=".668" stop-color="#7D2889" stop-opacity=".53"/><stop offset="1" stop-color="#42154C" stop-opacity="0"/></radialGradient><radialGradient id="paint2_radial_2308_4743" cx="0" cy="0" r="1" gradientUnits="userSpaceOnUse" gradientTransform="matrix(-48 0 0 -48 70.5 103.909)"><stop offset=".432" stop-color="#FF8B54"/><stop offset=".76" stop-color="#FFBB8D"/><stop offset="1" stop-color="#F9DDD1"/></radialGradient><radialGradient id="paint3_radial_2308_4743" cx="0" cy="0" r="1" gradientUnits="userSpaceOnUse" gradientTransform="matrix(0 -15 71.1523 0 71.5 36.91)"><stop offset=".302" stop-color="#F9DDD1"/><stop offset=".674" stop-color="#FFBB8D"/><stop offset="1" stop-color="#FF8B54"/></radialGradient><radialGradient id="paint4_radial_2308_4743" cx="0" cy="0" r="1" gradientUnits="userSpaceOnUse" gradientTransform="rotate(90 14.266 55.234) scale(8.94118)"><stop offset=".375" stop-color="#FFF4EB"/><stop offset="1" stop-color="#FFF3EB" stop-opacity="0"/></radialGradient><radialGradient id="paint5_radial_2308_4743" cx="0" cy="0" r="1" gradientUnits="userSpaceOnUse" gradientTransform="rotate(90 14.354 52.146) scale(6.11765)"><stop offset=".375" stop-color="#FFF4EB"/><stop offset="1" stop-color="#FFF3EB" stop-opacity="0"/></radialGradient><radialGradient id="paint6_radial_2308_4743" cx="0" cy="0" r="1" gradientUnits="userSpaceOnUse" gradientTransform="rotate(90 10.854 53.646) scale(6.11765)"><stop offset=".375" stop-color="#FFF4EB"/><stop offset="1" stop-color="#FFF3EB" stop-opacity="0"/></radialGradient><radialGradient id="paint7_radial_2308_4743" cx="0" cy="0" r="1" gradientUnits="userSpaceOnUse" gradientTransform="rotate(90 -.146 45.646) scale(6.11765)"><stop offset=".375" stop-color="#FFF4EB"/><stop offset="1" stop-color="#FFF3EB" stop-opacity="0"/></radialGradient><radialGradient id="paint8_radial_2308_4743" cx="0" cy="0" r="1" gradientUnits="userSpaceOnUse" gradientTransform="rotate(90 3.354 46.146) scale(6.11765)"><stop offset=".375" stop-color="#FFF4EB"/><stop offset="1" stop-color="#FFF3EB" stop-opacity="0"/></radialGradient><radialGradient id="paint9_radial_2308_4743" cx="0" cy="0" r="1" gradientUnits="userSpaceOnUse" gradientTransform="rotate(90 .942 48.558) scale(3.29412)"><stop offset=".375" stop-color="#FFF4EB"/><stop offset="1" stop-color="#FFF3EB" stop-opacity="0"/></radialGradient><radialGradient id="paint10_radial_2308_4743" cx="0" cy="0" r="1" gradientUnits="userSpaceOnUse" gradientTransform="rotate(90 29.442 75.058) scale(3.29412)"><stop offset=".375" stop-color="#FFF4EB"/><stop offset="1" stop-color="#FFF3EB" stop-opacity="0"/></radialGradient><radialGradient id="paint11_radial_2308_4743" cx="0" cy="0" r="1" gradientUnits="userSpaceOnUse" gradientTransform="rotate(90 28.972 79.528) scale(2.35294)"><stop offset=".375" stop-color="#FFF4EB"/><stop offset="1" stop-color="#FFF3EB" stop-opacity="0"/></radialGradient><radialGradient id="paint12_radial_2308_4743" cx="0" cy="0" r="1" gradientUnits="userSpaceOnUse" gradientTransform="rotate(90 26.913 76.587) scale(4.23529)"><stop offset=".375" stop-color="#FFF4EB"/><stop offset="1" stop-color="#FFF3EB" stop-opacity="0"/></radialGradient><radialGradient id="paint13_radial_2308_4743" cx="0" cy="0" r="1" gradientUnits="userSpaceOnUse" gradientTransform="rotate(90 27.442 58.058) scale(3.29412)"><stop offset=".375" stop-color="#FFF4EB"/><stop offset="1" stop-color="#FFF3EB" stop-opacity="0"/></radialGradient><radialGradient id="paint14_radial_2308_4743" cx="0" cy="0" r="1" gradientUnits="userSpaceOnUse" gradientTransform="rotate(90 22.472 50.028) scale(2.35294)"><stop offset=".375" stop-color="#FFF4EB"/><stop offset="1" stop-color="#FFF3EB" stop-opacity="0"/></radialGradient><radialGradient id="paint15_radial_2308_4743" cx="0" cy="0" r="1" gradientUnits="userSpaceOnUse" gradientTransform="rotate(90 12.472 43.028) scale(2.35294)"><stop offset=".375" stop-color="#FFF4EB"/><stop offset="1" stop-color="#FFF3EB" stop-opacity="0"/></radialGradient><radialGradient id="paint16_radial_2308_4743" cx="0" cy="0" r="1" gradientUnits="userSpaceOnUse" gradientTransform="rotate(90 25.354 64.146) scale(6.11765)"><stop offset=".375" stop-color="#FFF4EB"/><stop offset="1" stop-color="#FFF3EB" stop-opacity="0"/></radialGradient><radialGradient id="paint17_radial_2308_4743" cx="0" cy="0" r="1" gradientUnits="userSpaceOnUse" gradientTransform="rotate(90 23.354 60.146) scale(6.11765)"><stop offset=".375" stop-color="#FFF4EB"/><stop offset="1" stop-color="#FFF3EB" stop-opacity="0"/></radialGradient><radialGradient id="paint18_radial_2308_4743" cx="0" cy="0" r="1" gradientUnits="userSpaceOnUse" gradientTransform="rotate(90 23.354 63.146) scale(6.11765)"><stop offset=".375" stop-color="#FFF4EB"/><stop offset="1" stop-color="#FFF3EB" stop-opacity="0"/></radialGradient><radialGradient id="paint22_radial_2308_4743" cx="0" cy="0" r="1" gradientUnits="userSpaceOnUse" gradientTransform="rotate(90 -36.528 69.028) scale(2.35294)"><stop offset=".375" stop-color="#F9DDD1"/><stop offset="1" stop-color="#FFF3EB" stop-opacity="0"/></radialGradient><radialGradient id="paint23_radial_2308_4743" cx="0" cy="0" r="1" gradientUnits="userSpaceOnUse" gradientTransform="rotate(90 -40.028 68.528) scale(2.35294)"><stop offset=".375" stop-color="#F9DDD1"/><stop offset="1" stop-color="#FFF3EB" stop-opacity="0"/></radialGradient><radialGradient id="paint24_radial_2308_4743" cx="0" cy="0" r="1" gradientUnits="userSpaceOnUse" gradientTransform="rotate(90 -38.528 70.028) scale(2.35294)"><stop offset=".375" stop-color="#F9DDD1"/><stop offset="1" stop-color="#FFF3EB" stop-opacity="0"/></radialGradient><radialGradient id="paint25_radial_2308_4743" cx="0" cy="0" r="1" gradientUnits="userSpaceOnUse" gradientTransform="rotate(90 -37.528 73.028) scale(2.35294)"><stop offset=".375" stop-color="#F9DDD1"/><stop offset="1" stop-color="#FFF3EB" stop-opacity="0"/></radialGradient><radialGradient id="paint26_radial_2308_4743" cx="0" cy="0" r="1" gradientUnits="userSpaceOnUse" gradientTransform="rotate(90 2.972 112.528) scale(2.35294)"><stop offset=".375" stop-color="#F9DDD1"/><stop offset="1" stop-color="#FFF3EB" stop-opacity="0"/></radialGradient><radialGradient id="paint27_radial_2308_4743" cx="0" cy="0" r="1" gradientUnits="userSpaceOnUse" gradientTransform="rotate(90 4.957 110.043) scale(2.82353)"><stop offset=".375" stop-color="#F9DDD1"/><stop offset="1" stop-color="#FFF3EB" stop-opacity="0"/></radialGradient><radialGradient id="paint28_radial_2308_4743" cx="0" cy="0" r="1" gradientUnits="userSpaceOnUse" gradientTransform="rotate(90 2.457 107.543) scale(2.82353)"><stop offset=".375" stop-color="#F9DDD1"/><stop offset="1" stop-color="#FFF3EB" stop-opacity="0"/></radialGradient><radialGradient id="paint29_radial_2308_4743" cx="0" cy="0" r="1" gradientUnits="userSpaceOnUse" gradientTransform="rotate(90 1.442 105.058) scale(3.29412)"><stop offset=".375" stop-color="#F9DDD1"/><stop offset="1" stop-color="#FFF3EB" stop-opacity="0"/></radialGradient><radialGradient id="paint30_radial_2308_4743" cx="0" cy="0" r="1" gradientUnits="userSpaceOnUse" gradientTransform="rotate(90 -36.558 71.058) scale(3.29412)"><stop offset=".375" stop-color="#F9DDD1"/><stop offset="1" stop-color="#FFF3EB" stop-opacity="0"/></radialGradient><radialGradient id="paint31_radial_2308_4743" cx="0" cy="0" r="1" gradientUnits="userSpaceOnUse" gradientTransform="rotate(111.038 16.086 92.291) scale(6.96419)"><stop stop-color="#FDF7F2"/><stop offset="1" stop-color="#FFD8BD"/></radialGradient><linearGradient id="paint19_linear_2308_4743" x1="87" y1="115.909" x2="53.908" y2="29.655" gradientUnits="userSpaceOnUse"><stop stop-color="#E0B1CC"/><stop offset=".431" stop-color="#FFF1F1"/><stop offset="1" stop-color="#FFC9A5"/></linearGradient><linearGradient id="paint20_linear_2308_4743" x1="87" y1="70.409" x2="117" y2="70.409" gradientUnits="userSpaceOnUse"><stop stop-color="#D16AE9"/><stop offset="1" stop-color="#FF661D"/></linearGradient><linearGradient id="paint21_linear_2308_4743" x1="34.016" y1="49.909" x2="106.486" y2="111.719" gradientUnits="userSpaceOnUse"><stop stop-color="#FF661D"/><stop offset=".5" stop-color="#CE3A00"/><stop offset="1" stop-color="#A60A5E"/></linearGradient></defs></svg>