<svg width="140" height="121" fill="none" xmlns="http://www.w3.org/2000/svg"><g filter="url(#filter0_f_2174_43689)"><path d="M134.96 108.78l-85.514 7.213s-11.85-3.386-31.138-14.163c-19.29-10.776 1.378-15.394 1.378-15.394l95.894-12.932s9.04.28 14.608 11.813c5.567 11.533 4.772 23.463 4.772 23.463z" fill="url(#paint0_linear_2174_43689)"/></g><g filter="url(#filter1_f_2174_43689)"><path d="M42.715 7v14.32c0 7.783-.25 12.14-1.253 15.877-1.253 4.669-2.82 6.537-8.145 4.98C29.056 40.932 14.1 39.272 7 38.442c.94-9.028-.669-14.938 2.82-18.367C12.826 17.119 28.304 8.868 42.715 7z" fill="url(#paint1_linear_2174_43689)" fill-opacity=".5"/></g><path d="M29.532 91.543l4.95 4.165s.458.876-.81 1.502c-.568.276-.835.51-1.803.785-.877.25-1.853.325-3.422-.968-1.57-1.294-4.416-4.508-4.416-4.508l5.51-.968-.01-.008z" fill="#231026"/><path d="M29.973 90.917l4.19 4.374s.81.876-.05 1.294c-.567.275-.834.509-1.803.784-.876.25-1.853.326-3.422-.968-1.57-1.294-4.415-4.507-4.415-4.507l5.509-.968-.009-.009z" fill="url(#paint2_linear_2174_43689)"/><path d="M112.25 81.268l5.852 3.68s.459.877-.81 1.503c-.568.276-.835.51-1.803.785-.876.25-1.853.325-3.422-.968-1.569-1.294-5.317-4.023-5.317-4.023l5.509-.969-.009-.008z" fill="#231026"/><path d="M112.684 80.642l5.092 3.89s.926.692-.05 1.293c-.535.334-.835.51-1.803.785-.877.25-1.853.325-3.423-.968-1.569-1.294-5.316-4.023-5.316-4.023l5.508-.969-.008-.008z" fill="url(#paint3_linear_2174_43689)"/><path d="M116.806 78.974l.993-2.446-96.747 8.422s-5.133.835-4.715 4.299c.183 1.544 5.05 2.796 5.05 2.796a8.117 8.117 0 004.732.417c24.706-4.44 64.437-9.131 84.978-10.734 2.646-.209 4.357-.476 5.709-2.763v.009z" fill="#231026"/><path d="M64.456 14.562c21.51-1.252 48.069-1.294 53.661 1.978L18.841 91.635c-1.502.234-2.746-.926-3.514-3.03-.835-2.287-3.339-21.309-3.89-34.07-.509-11.845.627-28.338 1.044-30.14.826-3.598 2.637-3.231 5.484-4.09 4.649-1.11 26.75-4.591 46.49-5.735v-.008z" fill="url(#paint4_linear_2174_43689)"/><path d="M16.605 22.299c12.403-2.863 72.566-9.94 100.603-5.55a1.684 1.684 0 011.427 1.51c1.002 11.218 2.162 36.008.025 59.746a1.733 1.733 0 01-1.686 1.578c-12.336.4-69.812 5.225-98.107 11.468-1.01.225-1.979-.45-2.095-1.46-1.803-14.925-5.317-44.706-1.411-65.99a1.654 1.654 0 011.252-1.319l-.008.017z" fill="#F26726" stroke="url(#paint5_linear_2174_43689)" stroke-width="1.16"/><path d="M113.942 19.453c-25.424-3.94-82.858 2.72-94.218 5.325-.876.2-1.527.893-1.694 1.778-3.514 19.28-.226 46.032 1.402 59.646.159 1.352 1.47 2.253 2.796 1.961 25.458-5.592 80.146-10.208 91.397-10.584a2.332 2.332 0 002.254-2.111c1.911-21.418.876-43.72-.025-53.97a2.254 2.254 0 00-1.912-2.037v-.008z" fill="url(#paint6_radial_2174_43689)"/><path d="M110.155 22.24c-11.143-.458-26.885-1.101-41.392-.175-17.67 1.127-34.94 3.548-41.358 4.716-1.143.209-3.58 1.703-4.616 6.494-2.637 12.77-.333 35.449 1.494 47.134.21 1.352 1.92 2.245 3.656 1.953 27.22-4.624 71.231-8.046 82.116-8.272 1.535-.033 2.812-.926 2.946-2.095 2.087-18.237.993-38.478-.017-47.684-.125-1.136-1.335-2.02-2.829-2.07z" fill="url(#paint7_linear_2174_43689)"/><path d="M109.326 21.982c-6.569-.718-24.447-.801-40.982-.067-21.927.968-39.88 4.516-41.358 4.858-2.538.593-3.973 4.073-4.424 7.07-1.811 14.932-.417 34.02 1.369 45.523.417 3.121 3.363 3.48 5.066 3.188 28.104-5.409 69.804-8.388 80.471-8.605 2.287.066 3.481-.718 3.606-1.87 2.045-17.945 1.285-38.136.3-47.192-.125-1.119-1.118-2.43-4.048-2.905z" fill="url(#paint8_radial_2174_43689)" fill-opacity=".6"/><g filter="url(#filter2_ddddd_2174_43689)"><path d="M111.47 22.323c-29.574-2.989-76.302 2.263-87.322 4.81a1.606 1.606 0 00-1.211 1.265c-3.541 17.878-1.3 41.367 1.116 52.932.177.848.984 1.403 1.845 1.308 42.503-4.653 68.917-8.603 85.329-8.759a1.726 1.726 0 001.701-1.512c2.685-22.434 1.332-39.985.016-48.641a1.648 1.648 0 00-1.474-1.403z" fill="url(#paint9_linear_2174_43689)"/><path d="M111.47 22.323c-29.574-2.989-76.302 2.263-87.322 4.81a1.606 1.606 0 00-1.211 1.265c-3.541 17.878-1.3 41.367 1.116 52.932.177.848.984 1.403 1.845 1.308 42.503-4.653 68.917-8.603 85.329-8.759a1.726 1.726 0 001.701-1.512c2.685-22.434 1.332-39.985.016-48.641a1.648 1.648 0 00-1.474-1.403z" fill="url(#paint10_radial_2174_43689)" fill-opacity=".6"/></g><g opacity=".7" filter="url(#filter3_f_2174_43689)"><path d="M28.19 76.37c-1.561-4.291-5.125-13.998-2.004-38.938" stroke="url(#paint11_linear_2174_43689)" stroke-width="2.32" stroke-linecap="round"/></g><g filter="url(#filter4_f_2174_43689)" opacity=".3"><path d="M93.093 27.7c-8.514-1.294-48.22 2.144-66.632 5.45" stroke="url(#paint12_linear_2174_43689)" stroke-width="2.32" stroke-linecap="round"/></g><g filter="url(#filter5_f_2174_43689)"><path d="M33.748 31.163c-3.748 1.052-4.783-4.858-5.442-9.582 0 0-.46-4.582-.668-4.574-.209 0 .159 4.616.159 4.616.484 10.776-2.655 11.952-7.028 13.188 0 0-1.36.334-1.31.517.05.184 3.263-.567 3.263-.567 2.546-.718 5.592 1.252 5.793 4.916 0 0 .575 7.028.767 6.978l.1-.025c.193-.05-.066-7.07-.066-7.07-.142-1.995 1.344-7.02 4.566-7.93 1.101-.308 5.725-1.76 5.667-1.986-.05-.183-5.793 1.528-5.793 1.528l-.008-.009z" fill="url(#paint13_radial_2174_43689)"/></g><g filter="url(#filter6_f_2174_43689)"><path d="M35.875 34.427s.041 2.32-1.703 3.063c0 0 2.07.084 2.262 2.546.042 0 .083-2.604 1.786-3.113 0 0-1.836-.059-2.337-2.504l-.008.008z" fill="url(#paint14_radial_2174_43689)"/></g><defs><linearGradient id="paint0_linear_2174_43689" x1="75.349" y1="76.583" x2="79.342" y2="101.485" gradientUnits="userSpaceOnUse"><stop stop-color="#FD7327"/><stop offset=".214" stop-color="#F7665D" stop-opacity=".786"/><stop offset="1" stop-color="#F7945D" stop-opacity="0"/></linearGradient><linearGradient id="paint1_linear_2174_43689" x1="12.953" y1="31.904" x2="41.08" y2="18.066" gradientUnits="userSpaceOnUse"><stop offset=".203" stop-color="#3E0B08"/><stop offset=".413" stop-color="#531B4B"/><stop offset="1" stop-color="#6B2B62" stop-opacity=".29"/></linearGradient><linearGradient id="paint2_linear_2174_43689" x1="24.464" y1="94.214" x2="34.505" y2="94.214" gradientUnits="userSpaceOnUse"><stop offset=".02" stop-color="#F59292"/><stop offset=".2" stop-color="#F59292"/><stop offset=".35" stop-color="#F8C1D9"/><stop offset=".49" stop-color="#F26726"/><stop offset=".86" stop-color="#A61F61"/><stop offset="1" stop-color="#A61F61"/></linearGradient><linearGradient id="paint3_linear_2174_43689" x1="107.184" y1="83.705" x2="118.176" y2="83.705" gradientUnits="userSpaceOnUse"><stop offset=".02" stop-color="#F59292"/><stop offset=".2" stop-color="#F59292"/><stop offset=".35" stop-color="#F8C1D9"/><stop offset=".49" stop-color="#F26726"/><stop offset=".86" stop-color="#A61F61"/><stop offset="1" stop-color="#A61F61"/></linearGradient><linearGradient id="paint4_linear_2174_43689" x1="64.715" y1="13.777" x2="64.715" y2="91.66" gradientUnits="userSpaceOnUse"><stop stop-color="#F26726"/><stop offset=".61" stop-color="#F59292"/><stop offset=".84" stop-color="#F8C1D9"/><stop offset="1" stop-color="#DA72AD"/></linearGradient><linearGradient id="paint5_linear_2174_43689" x1="21.179" y1="14.904" x2="109.904" y2="89.315" gradientUnits="userSpaceOnUse"><stop stop-color="#F8C1D9"/><stop offset="1" stop-color="#DA72AD"/></linearGradient><linearGradient id="paint7_linear_2174_43689" x1="67.895" y1="21.59" x2="67.895" y2="82.938" gradientUnits="userSpaceOnUse"><stop offset=".44" stop-color="#7D2987"/><stop offset=".79" stop-color="#9D4D9E"/></linearGradient><linearGradient id="paint9_linear_2174_43689" x1="69.165" y1="21.846" x2="68.262" y2="80.338" gradientUnits="userSpaceOnUse"><stop offset=".442" stop-color="#7D2889"/><stop offset=".791" stop-color="#B934CC"/></linearGradient><linearGradient id="paint11_linear_2174_43689" x1="28.198" y1="36.388" x2="25.811" y2="77.062" gradientUnits="userSpaceOnUse"><stop stop-color="#9C53A0" stop-opacity=".44"/><stop offset=".46" stop-color="#F8C1D9"/><stop offset="1" stop-color="#DA72AD" stop-opacity=".36"/></linearGradient><linearGradient id="paint12_linear_2174_43689" x1="25.292" y1="33.1" x2="93.702" y2="26.764" gradientUnits="userSpaceOnUse"><stop stop-color="#9C53A0" stop-opacity=".44"/><stop offset=".46" stop-color="#F8C1D9"/><stop offset="1" stop-color="#DA72AD" stop-opacity=".36"/></linearGradient><filter id="filter0_f_2174_43689" x="5.152" y="68.578" width="134.774" height="52.342" filterUnits="userSpaceOnUse" color-interpolation-filters="sRGB"><feFlood flood-opacity="0" result="BackgroundImageFix"/><feBlend in="SourceGraphic" in2="BackgroundImageFix" result="shape"/><feGaussianBlur stdDeviation="2.463" result="effect1_foregroundBlur_2174_43689"/></filter><filter id="filter1_f_2174_43689" x="5.768" y="5.768" width="38.178" height="38.179" filterUnits="userSpaceOnUse" color-interpolation-filters="sRGB"><feFlood flood-opacity="0" result="BackgroundImageFix"/><feBlend in="SourceGraphic" in2="BackgroundImageFix" result="shape"/><feGaussianBlur stdDeviation=".616" result="effect1_foregroundBlur_2174_43689"/></filter><filter id="filter2_ddddd_2174_43689" x=".571" y=".903" width="134.431" height="102.272" filterUnits="userSpaceOnUse" color-interpolation-filters="sRGB"><feFlood flood-opacity="0" result="BackgroundImageFix"/><feColorMatrix in="SourceAlpha" values="0 0 0 0 0 0 0 0 0 0 0 0 0 0 0 0 0 0 127 0" result="hardAlpha"/><feOffset/><feGaussianBlur stdDeviation="10.263"/><feComposite in2="hardAlpha" operator="out"/><feColorMatrix values="0 0 0 0 1 0 0 0 0 0.4 0 0 0 0 0.85098 0 0 0 1 0"/><feBlend in2="BackgroundImageFix" result="effect1_dropShadow_2174_43689"/><feColorMatrix in="SourceAlpha" values="0 0 0 0 0 0 0 0 0 0 0 0 0 0 0 0 0 0 127 0" result="hardAlpha"/><feOffset/><feGaussianBlur stdDeviation="10.263"/><feComposite in2="hardAlpha" operator="out"/><feColorMatrix values="0 0 0 0 1 0 0 0 0 0.4 0 0 0 0 0.85098 0 0 0 1 0"/><feBlend in2="effect1_dropShadow_2174_43689" result="effect2_dropShadow_2174_43689"/><feColorMatrix in="SourceAlpha" values="0 0 0 0 0 0 0 0 0 0 0 0 0 0 0 0 0 0 127 0" result="hardAlpha"/><feOffset/><feGaussianBlur stdDeviation="10.263"/><feComposite in2="hardAlpha" operator="out"/><feColorMatrix values="0 0 0 0 1 0 0 0 0 0.4 0 0 0 0 0.85098 0 0 0 1 0"/><feBlend in2="effect2_dropShadow_2174_43689" result="effect3_dropShadow_2174_43689"/><feColorMatrix in="SourceAlpha" values="0 0 0 0 0 0 0 0 0 0 0 0 0 0 0 0 0 0 127 0" result="hardAlpha"/><feOffset/><feGaussianBlur stdDeviation="5.132"/><feComposite in2="hardAlpha" operator="out"/><feColorMatrix values="0 0 0 0 0.849744 0 0 0 0 0.208653 0 0 0 0 1 0 0 0 1 0"/><feBlend in2="effect3_dropShadow_2174_43689" result="effect4_dropShadow_2174_43689"/><feColorMatrix in="SourceAlpha" values="0 0 0 0 0 0 0 0 0 0 0 0 0 0 0 0 0 0 127 0" result="hardAlpha"/><feOffset/><feGaussianBlur stdDeviation="2.138"/><feComposite in2="hardAlpha" operator="out"/><feColorMatrix values="0 0 0 0 1 0 0 0 0 0.4 0 0 0 0 0.113725 0 0 0 1 0"/><feBlend in2="effect4_dropShadow_2174_43689" result="effect5_dropShadow_2174_43689"/><feBlend in="SourceGraphic" in2="effect5_dropShadow_2174_43689" result="shape"/></filter><filter id="filter3_f_2174_43689" x="21.322" y="33.808" width="10.493" height="46.185" filterUnits="userSpaceOnUse" color-interpolation-filters="sRGB"><feFlood flood-opacity="0" result="BackgroundImageFix"/><feBlend in="SourceGraphic" in2="BackgroundImageFix" result="shape"/><feGaussianBlur stdDeviation="1.232" result="effect1_foregroundBlur_2174_43689"/></filter><filter id="filter4_f_2174_43689" x="22.838" y="23.797" width="73.879" height="12.977" filterUnits="userSpaceOnUse" color-interpolation-filters="sRGB"><feFlood flood-opacity="0" result="BackgroundImageFix"/><feBlend in="SourceGraphic" in2="BackgroundImageFix" result="shape"/><feGaussianBlur stdDeviation="1.232" result="effect1_foregroundBlur_2174_43689"/></filter><filter id="filter5_f_2174_43689" x="17.61" y="15.16" width="23.788" height="33.343" filterUnits="userSpaceOnUse" color-interpolation-filters="sRGB"><feFlood flood-opacity="0" result="BackgroundImageFix"/><feBlend in="SourceGraphic" in2="BackgroundImageFix" result="shape"/><feGaussianBlur stdDeviation=".924" result="effect1_foregroundBlur_2174_43689"/></filter><filter id="filter6_f_2174_43689" x="33.248" y="33.495" width="5.894" height="7.465" filterUnits="userSpaceOnUse" color-interpolation-filters="sRGB"><feFlood flood-opacity="0" result="BackgroundImageFix"/><feBlend in="SourceGraphic" in2="BackgroundImageFix" result="shape"/><feGaussianBlur stdDeviation=".462" result="effect1_foregroundBlur_2174_43689"/></filter><radialGradient id="paint6_radial_2174_43689" cx="0" cy="0" r="1" gradientUnits="userSpaceOnUse" gradientTransform="matrix(63.8775 0 0 74.7367 66.716 53.166)"><stop offset=".45" stop-color="#DB569F"/><stop offset=".89" stop-color="#5D2260"/></radialGradient><radialGradient id="paint8_radial_2174_43689" cx="0" cy="0" r="1" gradientUnits="userSpaceOnUse" gradientTransform="matrix(-9.96085 41.04781 -63.65977 -15.44797 -1494.87 6571.56)"><stop offset=".79" stop-color="#42174C" stop-opacity="0"/><stop offset="1" stop-color="#42174C"/></radialGradient><radialGradient id="paint10_radial_2174_43689" cx="0" cy="0" r="1" gradientUnits="userSpaceOnUse" gradientTransform="rotate(109.741 20.148 57.844) scale(36.2931 75.1197)"><stop offset=".889" stop-color="#42154C" stop-opacity="0"/><stop offset="1" stop-color="#42154C"/></radialGradient><radialGradient id="paint13_radial_2174_43689" cx="0" cy="0" r="1" gradientUnits="userSpaceOnUse" gradientTransform="rotate(74.3 -6.976 36.057) scale(14.4899 10.4334)"><stop stop-color="#FDEDF4"/><stop offset="1" stop-color="#fff"/></radialGradient><radialGradient id="paint14_radial_2174_43689" cx="0" cy="0" r="1" gradientUnits="userSpaceOnUse" gradientTransform="rotate(-4.42 500.448 -450.286) scale(2.46228)"><stop stop-color="#FDEDF4"/><stop offset="1" stop-color="#fff"/></radialGradient></defs></svg>